<svg t="1780216893833" class="icon" viewBox="0 0 1024 1024" version="1.1" xmlns="http://www.w3.org/2000/svg" p-id="1993" width="256" height="256"><path d="M967.111111 691.2V535.893333c-136.931556 12.231111-262.485333 21.333333-262.485333 21.333334-5.745778-42.609778 5.688889-130.844444 5.688889-130.844445 88.462222 15.246222 176.924444 27.363556 256.796444 33.507556V316.871111c-131.185778-51.655111-219.648-115.541333-219.648-115.541333C618.951111 91.704889 470.641778 116.053333 470.641778 116.053333a267.776 267.776 0 0 0-165.546667 66.901334C245.191111 240.810667 188.074667 316.871111 139.662222 389.916444 82.488889 475.136 56.888889 569.514667 108.202667 669.809778c17.180444 33.564444 37.148444 60.871111 59.960889 88.291555 5.688889 6.087111 22.812444 33.564444 31.402666 33.564445A1508.124444 1508.124444 0 0 0 56.888889 885.873778h111.274667s74.183111-51.768889 145.521777-91.249778c48.583111 0 102.741333 2.958222 151.267556 2.958222-31.402667 21.390222-99.896889 69.973333-151.267556 112.583111H424.96s208.440889-143.018667 382.407111-176.469333l-17.066667 3.072A6745.884444 6745.884444 0 0 1 967.111111 691.2zM193.820444 535.893333c-39.992889 0-68.437333-18.204444-68.437333-42.552889s31.345778-42.609778 68.437333-42.609777c39.992889 0 68.494222 18.261333 68.494223 42.666666 2.844444 24.291556-28.444444 42.496-68.494223 42.496z m199.736889-225.109333l-142.620444-9.102222s62.748444-88.291556 82.773333-94.435556L419.271111 210.488889l-25.6 100.408889z m62.862223-97.393778l122.652444 3.015111V316.871111l-145.521778-6.030222 22.869334-97.393778z m65.592888 322.56c-39.992889 0-68.437333-18.204444-68.437333-42.609778 0-24.348444 31.288889-42.609778 68.437333-42.609777 39.936 0 68.494222 18.261333 68.494223 42.666666 0 24.291556-31.402667 42.496-68.494223 42.496z" fill="#d81e06" p-id="1994"></path></svg>